<svg width="38" height="38" viewBox="0 0 38 38" fill="none" xmlns="http://www.w3.org/2000/svg">
<rect width="38" height="38" rx="19" fill="#4730D9"/>
<path d="M16.75 18.8125C16.2325 18.8125 15.8125 19.2325 15.8125 19.75C15.8125 20.2675 16.2325 20.6875 16.75 20.6875C17.2675 20.6875 17.6875 20.2675 17.6875 19.75C17.6875 19.2325 17.2675 18.8125 16.75 18.8125ZM21.25 18.8125C20.7325 18.8125 20.3125 19.2325 20.3125 19.75C20.3125 20.2675 20.7325 20.6875 21.25 20.6875C21.7675 20.6875 22.1875 20.2675 22.1875 19.75C22.1875 19.2325 21.7675 18.8125 21.25 18.8125ZM19 11.5C14.86 11.5 11.5 14.86 11.5 19C11.5 23.14 14.86 26.5 19 26.5C23.14 26.5 26.5 23.14 26.5 19C26.5 14.86 23.14 11.5 19 11.5ZM19 25C15.6925 25 13 22.3075 13 19C13 18.7825 13.015 18.565 13.0375 18.355C14.8075 17.5675 16.21 16.12 16.945 14.3275C18.3025 16.2475 20.5375 17.5 23.065 17.5C23.65 17.5 24.2125 17.4325 24.7525 17.305C24.91 17.8375 25 18.4075 25 19C25 22.3075 22.3075 25 19 25Z" fill="white"/>
</svg>
