<svg width="32" height="32" viewBox="0 0 32 32" fill="none" xmlns="http://www.w3.org/2000/svg">
<rect width="32" height="32" rx="16" fill="black" fill-opacity="0.2"/>
<g clip-path="url(#clip0_44_33723)">
<path opacity="0.2" d="M19.5 16C19.5 16.3461 19.3974 16.6845 19.2051 16.9722C19.0128 17.26 18.7395 17.4843 18.4197 17.6168C18.0999 17.7492 17.7481 17.7839 17.4086 17.7164C17.0691 17.6489 16.7573 17.4822 16.5126 17.2374C16.2678 16.9927 16.1011 16.6809 16.0336 16.3414C15.9661 16.0019 16.0008 15.6501 16.1332 15.3303C16.2657 15.0105 16.49 14.7372 16.7778 14.5449C17.0655 14.3526 17.4039 14.25 17.75 14.25C18.2141 14.25 18.6592 14.4344 18.9874 14.7626C19.3156 15.0908 19.5 15.5359 19.5 16ZM13.8125 14.25H16V10.75H13.8125C13.3484 10.75 12.9033 10.9344 12.5751 11.2626C12.2469 11.5908 12.0625 12.0359 12.0625 12.5C12.0625 12.9641 12.2469 13.4092 12.5751 13.7374C12.9033 14.0656 13.3484 14.25 13.8125 14.25ZM12.0625 19.7188C12.0625 20.2409 12.2699 20.7417 12.6391 21.1109C13.0083 21.4801 13.5091 21.6875 14.0312 21.6875C14.5534 21.6875 15.0542 21.4801 15.4234 21.1109C15.7926 20.7417 16 20.2409 16 19.7188V17.75H14.0312C13.5091 17.75 13.0083 17.9574 12.6391 18.3266C12.2699 18.6958 12.0625 19.1966 12.0625 19.7188Z" fill="white"/>
<path d="M19.0625 14.25C19.4298 13.9745 19.7011 13.5905 19.838 13.1522C19.9749 12.714 19.9705 12.2438 19.8253 11.8083C19.6801 11.3727 19.4015 10.9939 19.0291 10.7254C18.6566 10.457 18.2092 10.3125 17.75 10.3125H13.8125C13.3534 10.3125 12.9059 10.457 12.5335 10.7254C12.161 10.9939 11.8825 11.3727 11.7373 11.8083C11.5921 12.2438 11.5876 12.714 11.7245 13.1522C11.8614 13.5905 12.1327 13.9745 12.5 14.25C12.2219 14.4584 11.9975 14.7301 11.8453 15.0425C11.6931 15.3549 11.6176 15.6991 11.6249 16.0466C11.6322 16.394 11.7222 16.7347 11.8874 17.0405C12.0526 17.3462 12.2883 17.6082 12.575 17.8047C12.2489 18.0526 11.9916 18.3795 11.8272 18.7547C11.6629 19.1298 11.597 19.5407 11.6359 19.9484C11.6747 20.3561 11.817 20.7472 12.0492 21.0845C12.2814 21.4219 12.5959 21.6944 12.9629 21.8762C13.3298 22.0581 13.7372 22.1433 14.1462 22.1237C14.5553 22.1041 14.9527 21.9805 15.3006 21.7644C15.6485 21.5484 15.9356 21.2471 16.1345 20.8891C16.3335 20.5311 16.4378 20.1283 16.4375 19.7188V17.75C16.6673 17.9224 16.9289 18.0478 17.2071 18.1191C17.4854 18.1904 17.775 18.2061 18.0594 18.1655C18.3438 18.1249 18.6174 18.0286 18.8646 17.8823C19.1117 17.7359 19.3277 17.5423 19.5 17.3125C19.6724 17.0827 19.7978 16.8212 19.8691 16.5429C19.9404 16.2646 19.9562 15.975 19.9155 15.6906C19.8749 15.4063 19.7787 15.1327 19.6323 14.8855C19.486 14.6383 19.2923 14.4224 19.0625 14.25ZM19.0625 12.5C19.0625 12.8481 18.9243 13.1819 18.6781 13.4281C18.432 13.6742 18.0981 13.8125 17.75 13.8125H16.4375V11.1875H17.75C18.0981 11.1875 18.432 11.3258 18.6781 11.5719C18.9243 11.8181 19.0625 12.1519 19.0625 12.5ZM12.5 12.5C12.5 12.1519 12.6383 11.8181 12.8845 11.5719C13.1306 11.3258 13.4644 11.1875 13.8125 11.1875H15.5625V13.8125H13.8125C13.4644 13.8125 13.1306 13.6742 12.8845 13.4281C12.6383 13.1819 12.5 12.8481 12.5 12.5ZM13.8125 17.3125C13.4644 17.3125 13.1306 17.1742 12.8845 16.9281C12.6383 16.6819 12.5 16.3481 12.5 16C12.5 15.6519 12.6383 15.3181 12.8845 15.0719C13.1306 14.8258 13.4644 14.6875 13.8125 14.6875H15.5625V17.3125H13.8125ZM15.5625 19.7188C15.5625 20.0216 15.4727 20.3177 15.3045 20.5695C15.1362 20.8213 14.8971 21.0175 14.6173 21.1334C14.3375 21.2493 14.0296 21.2797 13.7326 21.2206C13.4355 21.1615 13.1627 21.0157 12.9485 20.8015C12.7344 20.5874 12.5885 20.3145 12.5295 20.0175C12.4704 19.7204 12.5007 19.4126 12.6166 19.1328C12.7325 18.853 12.9288 18.6138 13.1806 18.4456C13.4324 18.2773 13.7284 18.1875 14.0313 18.1875H15.5625V19.7188ZM17.75 17.3125C17.4904 17.3125 17.2367 17.2355 17.0208 17.0913C16.805 16.9471 16.6368 16.7421 16.5374 16.5023C16.4381 16.2624 16.4121 15.9985 16.4628 15.7439C16.5134 15.4893 16.6384 15.2555 16.822 15.0719C17.0055 14.8884 17.2394 14.7634 17.494 14.7127C17.7486 14.6621 18.0125 14.6881 18.2523 14.7874C18.4921 14.8867 18.6971 15.055 18.8413 15.2708C18.9856 15.4867 19.0625 15.7404 19.0625 16C19.0625 16.3481 18.9243 16.6819 18.6781 16.9281C18.432 17.1742 18.0981 17.3125 17.75 17.3125Z" fill="white"/>
</g>
<defs>
<clipPath id="clip0_44_33723">
<rect width="14" height="14" fill="white" transform="translate(9 9)"/>
</clipPath>
</defs>
</svg>
