<svg width="38" height="38" viewBox="0 0 38 38" fill="none" xmlns="http://www.w3.org/2000/svg">
<rect width="38" height="38" rx="19" fill="#4730D9"/>
<g clip-path="url(#clip0_44_33723)">
<path opacity="0.2" d="M23.5 19C23.5 19.445 23.368 19.88 23.1208 20.25C22.8736 20.62 22.5222 20.9084 22.111 21.0787C21.6999 21.249 21.2475 21.2936 20.811 21.2068C20.3746 21.12 19.9737 20.9057 19.659 20.591C19.3443 20.2763 19.13 19.8754 19.0432 19.439C18.9564 19.0025 19.001 18.5501 19.1713 18.139C19.3416 17.7278 19.63 17.3764 20 17.1292C20.37 16.882 20.805 16.75 21.25 16.75C21.8467 16.75 22.419 16.9871 22.841 17.409C23.2629 17.831 23.5 18.4033 23.5 19ZM16.1875 16.75H19V12.25H16.1875C15.5908 12.25 15.0185 12.4871 14.5965 12.909C14.1746 13.331 13.9375 13.9033 13.9375 14.5C13.9375 15.0967 14.1746 15.669 14.5965 16.091C15.0185 16.5129 15.5908 16.75 16.1875 16.75ZM13.9375 23.7812C13.9375 24.4526 14.2042 25.0964 14.6789 25.5711C15.1536 26.0458 15.7974 26.3125 16.4688 26.3125C17.1401 26.3125 17.7839 26.0458 18.2586 25.5711C18.7333 25.0964 19 24.4526 19 23.7812V21.25H16.4688C15.7974 21.25 15.1536 21.5167 14.6789 21.9914C14.2042 22.4661 13.9375 23.1099 13.9375 23.7812Z" fill="white"/>
<path d="M22.9375 16.75C23.4097 16.3958 23.7585 15.902 23.9345 15.3386C24.1106 14.7752 24.1048 14.1706 23.9181 13.6106C23.7315 13.0506 23.3733 12.5635 22.8945 12.2184C22.4156 11.8732 21.8403 11.6875 21.25 11.6875H16.1875C15.5972 11.6875 15.0218 11.8732 14.543 12.2184C14.0641 12.5635 13.706 13.0506 13.5193 13.6106C13.3326 14.1706 13.3269 14.7752 13.5029 15.3386C13.6789 15.902 14.0277 16.3958 14.5 16.75C14.1424 17.018 13.8539 17.3673 13.6582 17.7689C13.4625 18.1706 13.3654 18.6132 13.3748 19.0599C13.3842 19.5066 13.4999 19.9447 13.7123 20.3377C13.9248 20.7308 14.2278 21.0677 14.5963 21.3203C14.1771 21.639 13.8462 22.0594 13.6349 22.5417C13.4237 23.0241 13.339 23.5523 13.3889 24.0765C13.4389 24.6007 13.6218 25.1035 13.9203 25.5372C14.2189 25.971 14.6232 26.3214 15.0951 26.5552C15.5669 26.789 16.0906 26.8985 16.6165 26.8733C17.1425 26.8482 17.6533 26.6892 18.1007 26.4114C18.548 26.1336 18.9171 25.7463 19.1729 25.286C19.4287 24.8258 19.5628 24.3078 19.5625 23.7812V21.25C19.8579 21.4716 20.1942 21.6328 20.552 21.7245C20.9098 21.8162 21.2821 21.8365 21.6477 21.7842C22.0134 21.732 22.3651 21.6083 22.6829 21.4201C23.0007 21.2319 23.2784 20.983 23.5 20.6875C23.7216 20.392 23.8828 20.0558 23.9745 19.698C24.0661 19.3402 24.0864 18.9679 24.0342 18.6023C23.982 18.2366 23.8582 17.8849 23.6701 17.567C23.4819 17.2492 23.2329 16.9716 22.9375 16.75ZM22.9375 14.5C22.9375 14.9476 22.7597 15.3768 22.4432 15.6932C22.1268 16.0097 21.6975 16.1875 21.25 16.1875H19.5625V12.8125H21.25C21.6975 12.8125 22.1268 12.9903 22.4432 13.3068C22.7597 13.6232 22.9375 14.0524 22.9375 14.5ZM14.5 14.5C14.5 14.0524 14.6778 13.6232 14.9942 13.3068C15.3107 12.9903 15.7399 12.8125 16.1875 12.8125H18.4375V16.1875H16.1875C15.7399 16.1875 15.3107 16.0097 14.9942 15.6932C14.6778 15.3768 14.5 14.9476 14.5 14.5ZM16.1875 20.6875C15.7399 20.6875 15.3107 20.5097 14.9942 20.1932C14.6778 19.8768 14.5 19.4476 14.5 19C14.5 18.5524 14.6778 18.1232 14.9942 17.8068C15.3107 17.4903 15.7399 17.3125 16.1875 17.3125H18.4375V20.6875H16.1875ZM18.4375 23.7812C18.4375 24.1706 18.322 24.5513 18.1057 24.875C17.8894 25.1988 17.5819 25.4511 17.2221 25.6001C16.8624 25.7491 16.4665 25.7881 16.0846 25.7122C15.7027 25.6362 15.3519 25.4487 15.0766 25.1734C14.8013 24.898 14.6138 24.5472 14.5378 24.1653C14.4618 23.7834 14.5008 23.3876 14.6498 23.0278C14.7988 22.6681 15.0512 22.3606 15.3749 22.1443C15.6987 21.928 16.0793 21.8125 16.4687 21.8125H18.4375V23.7812ZM21.25 20.6875C20.9162 20.6875 20.59 20.5885 20.3125 20.4031C20.0349 20.2177 19.8187 19.9541 19.6909 19.6458C19.5632 19.3374 19.5298 18.9981 19.5949 18.6708C19.66 18.3434 19.8207 18.0428 20.0567 17.8068C20.2927 17.5708 20.5934 17.41 20.9208 17.3449C21.2481 17.2798 21.5874 17.3132 21.8958 17.441C22.2041 17.5687 22.4677 17.785 22.6531 18.0625C22.8385 18.34 22.9375 18.6662 22.9375 19C22.9375 19.4476 22.7597 19.8768 22.4432 20.1932C22.1268 20.5097 21.6975 20.6875 21.25 20.6875Z" fill="white"/>
</g>
<defs>
<clipPath id="clip0_44_33723">
<rect width="18" height="18" fill="white" transform="translate(10 10)"/>
</clipPath>
</defs>
</svg>
