<svg width="85" height="18" viewBox="0 0 85 18" fill="none" xmlns="http://www.w3.org/2000/svg">
<g opacity="0.5">
<path d="M0 0.5H4.99986C8.31357 0.5 10.9999 3.18629 10.9999 6.5V6.5C10.9999 9.81371 8.31357 12.5 4.99986 12.5H0V0.5Z" fill="#373F41"/>
<path opacity="0.8" d="M0 6.16675H5.33319C8.4628 6.16675 10.9999 8.7038 10.9999 11.8334V12.0002C10.9999 15.0377 8.53746 17.5001 5.49993 17.5001V17.5001C2.4624 17.5001 0 15.0377 0 12.0002L0 6.16675Z" fill="black" fill-opacity="0.7"/>
<path d="M80.3801 14.3518V8.9118C80.3801 8.18647 80.5805 7.61728 80.9814 7.20425C81.392 6.78114 81.9591 6.56958 82.6827 6.56958H85V8.62469H83.46C83.3036 8.62469 83.1765 8.67506 83.0787 8.7758C82.9809 8.87654 82.932 9.00751 82.932 9.16869V14.3518H80.3801Z" fill="#373F41"/>
<path d="M74.9782 14.5331C74.2156 14.5331 73.5214 14.3618 72.8956 14.0193C72.2796 13.6667 71.7858 13.1831 71.4143 12.5686C71.0427 11.9541 70.857 11.2489 70.857 10.4531C70.857 9.66729 71.0427 8.96715 71.4143 8.35263C71.7858 7.73811 72.2845 7.25959 72.9103 6.91707C73.536 6.56448 74.2303 6.38818 74.9929 6.38818C75.7556 6.38818 76.4449 6.56448 77.0609 6.91707C77.6867 7.25959 78.1804 7.73811 78.5422 8.35263C78.9138 8.96715 79.0995 9.66729 79.0995 10.4531C79.0995 11.2489 78.9138 11.9541 78.5422 12.5686C78.1804 13.1831 77.6867 13.6667 77.0609 14.0193C76.4449 14.3618 75.7507 14.5331 74.9782 14.5331ZM74.9782 12.206C75.2911 12.206 75.5649 12.1304 75.7996 11.9793C76.044 11.8282 76.2298 11.6217 76.3569 11.3597C76.484 11.0877 76.5476 10.7855 76.5476 10.4531C76.5476 10.1106 76.484 9.80833 76.3569 9.54641C76.2298 9.28448 76.044 9.07796 75.7996 8.92685C75.5649 8.77574 75.2911 8.70018 74.9782 8.70018C74.6654 8.70018 74.3916 8.77574 74.1569 8.92685C73.9223 9.07796 73.7365 9.28448 73.5996 9.54641C73.4725 9.80833 73.4089 10.1106 73.4089 10.4531C73.4089 10.7855 73.4725 11.0877 73.5996 11.3597C73.7365 11.6217 73.9223 11.8282 74.1569 11.9793C74.3916 12.1304 74.6654 12.206 74.9782 12.206Z" fill="#373F41"/>
<path d="M65.666 14.5481C64.8447 14.5481 64.1211 14.3718 63.4954 14.0192C62.8794 13.6666 62.4003 13.178 62.0581 12.5534C61.7158 11.9188 61.5447 11.1733 61.5447 10.317V3.32056H64.0967V7.29478H64.1554C64.3118 7.0933 64.4927 6.92708 64.698 6.79611C64.9034 6.65508 65.1331 6.55433 65.3873 6.49389C65.6416 6.42337 65.9056 6.38811 66.1793 6.38811C66.8735 6.38811 67.4944 6.55433 68.042 6.88678C68.5895 7.21922 69.0149 7.68263 69.318 8.277C69.6308 8.8613 69.7873 9.54633 69.7873 10.3321C69.7873 10.9567 69.6895 11.5259 69.494 12.0397C69.3082 12.5434 69.0344 12.9866 68.6726 13.3694C68.3206 13.7422 67.8904 14.0343 67.382 14.2459C66.8735 14.4474 66.3016 14.5481 65.666 14.5481ZM65.666 12.2663C65.9789 12.2663 66.2478 12.1908 66.4727 12.0397C66.7073 11.8785 66.8833 11.6619 67.0007 11.3899C67.1278 11.1179 67.1913 10.8106 67.1913 10.4681C67.1913 10.1357 67.1278 9.83848 67.0007 9.57656C66.8833 9.31463 66.7073 9.10811 66.4727 8.957C66.2478 8.79582 65.9789 8.71522 65.666 8.71522C65.3727 8.71522 65.1087 8.79582 64.874 8.957C64.6394 9.10811 64.4585 9.31463 64.3314 9.57656C64.2042 9.83848 64.1407 10.1357 64.1407 10.4681C64.1407 10.8106 64.2042 11.1179 64.3314 11.3899C64.4585 11.6619 64.6394 11.8785 64.874 12.0397C65.1087 12.1908 65.3727 12.2663 65.666 12.2663Z" fill="#373F41"/>
<path d="M55.9225 14.3518V8.9118C55.9225 8.18647 56.123 7.61728 56.5239 7.20425C56.9345 6.78114 57.5016 6.56958 58.2252 6.56958H60.5425V8.62469H59.0025C58.8461 8.62469 58.7189 8.67506 58.6212 8.7758C58.5234 8.87654 58.4745 9.00751 58.4745 9.16869V14.3518H55.9225Z" fill="#373F41"/>
<path d="M49.5006 14.5482C48.8455 14.5482 48.2638 14.3769 47.7553 14.0344C47.2469 13.6919 46.846 13.2234 46.5527 12.6291C46.2691 12.0246 46.1273 11.3396 46.1273 10.574C46.1273 9.76804 46.2985 9.04774 46.6407 8.41307C46.9927 7.77841 47.4816 7.28478 48.1073 6.93218C48.7331 6.56952 49.4713 6.38818 50.322 6.38818C51.1531 6.38818 51.8668 6.56448 52.4633 6.91707C53.0695 7.26966 53.5388 7.75322 53.8713 8.36774C54.2037 8.98226 54.3699 9.68744 54.3699 10.4833V14.3517H51.9206V13.1429H51.8619C51.7251 13.4149 51.5491 13.6566 51.334 13.8682C51.1188 14.0797 50.8597 14.246 50.5566 14.3669C50.2633 14.4877 49.9113 14.5482 49.5006 14.5482ZM50.2633 12.2664C50.5762 12.2664 50.8451 12.1909 51.07 12.0397C51.2948 11.8786 51.4708 11.662 51.5979 11.39C51.7251 11.118 51.7886 10.8107 51.7886 10.4682C51.7886 10.1257 51.7251 9.82848 51.5979 9.57663C51.4708 9.3147 51.2948 9.10818 51.07 8.95707C50.8451 8.79589 50.5762 8.71529 50.2633 8.71529C49.9602 8.71529 49.6913 8.79589 49.4566 8.95707C49.2318 9.10818 49.0558 9.3147 48.9286 9.57663C48.8015 9.82848 48.738 10.1257 48.738 10.4682C48.738 10.8107 48.8015 11.118 48.9286 11.39C49.0558 11.662 49.2318 11.8786 49.4566 12.0397C49.6913 12.1909 49.9602 12.2664 50.2633 12.2664Z" fill="#373F41"/>
<path d="M35.6283 14.3517V3.77393H38.4296V7.8237H41.9789V3.77393H44.7802V14.3517H41.9789V10.1659H38.4296V14.3517H35.6283Z" fill="#373F41"/>
<path d="M31.9072 14.3518C31.1935 14.3518 30.6312 14.1453 30.2206 13.7323C29.8197 13.3092 29.6193 12.7349 29.6193 12.0096V4.71094H32.1566V11.8132C32.1566 11.924 32.1957 12.0197 32.2739 12.1003C32.3521 12.1708 32.445 12.206 32.5526 12.206H34.1952V14.3518H31.9072ZM28.4313 8.62471V6.5696H34.1952V8.62471H28.4313Z" fill="#373F41"/>
<path d="M24.827 14.3517V6.56953H27.379V14.3517H24.827ZM26.103 5.7233C25.7119 5.7233 25.3746 5.57723 25.091 5.28508C24.8172 4.99293 24.6804 4.65042 24.6804 4.25753C24.6804 3.85456 24.8172 3.51204 25.091 3.22997C25.3746 2.93782 25.7119 2.79175 26.103 2.79175C26.4941 2.79175 26.8266 2.93782 27.1003 3.22997C27.3839 3.51204 27.5257 3.85456 27.5257 4.25753C27.5257 4.65042 27.3839 4.99293 27.1003 5.28508C26.8266 5.57723 26.4941 5.7233 26.103 5.7233Z" fill="#373F41"/>
<path d="M14.2216 14.3517V3.77393H20.3375C20.8753 3.77393 21.3593 3.89481 21.7895 4.13659C22.2295 4.3683 22.5815 4.6957 22.8455 5.11882C23.1095 5.54193 23.2415 6.04059 23.2415 6.61482C23.2415 6.92711 23.1828 7.22933 23.0655 7.52148C22.9481 7.80356 22.7917 8.06044 22.5961 8.29215C22.4006 8.51378 22.1659 8.70519 21.8922 8.86637C22.2148 9.01748 22.4935 9.224 22.7281 9.48593C22.9726 9.74785 23.1584 10.045 23.2855 10.3775C23.4224 10.7099 23.4908 11.0625 23.4908 11.4353C23.4908 12.0196 23.3539 12.5333 23.0801 12.9766C22.8161 13.4098 22.4593 13.7473 22.0095 13.989C21.5597 14.2308 21.0611 14.3517 20.5135 14.3517H14.2216ZM17.0229 12.0699H19.8389C20.0246 12.0699 20.1811 12.0296 20.3082 11.949C20.4451 11.8584 20.5526 11.7375 20.6308 11.5864C20.7091 11.4353 20.7482 11.269 20.7482 11.0877C20.7482 10.9064 20.7091 10.7452 20.6308 10.6041C20.5526 10.4631 20.4451 10.3523 20.3082 10.2717C20.1811 10.181 20.0246 10.1357 19.8389 10.1357H17.0229V12.0699ZM17.0229 7.92948H19.5309C19.6971 7.92948 19.8437 7.88919 19.9708 7.80859C20.1077 7.71793 20.2104 7.60207 20.2788 7.46104C20.3571 7.32 20.3962 7.16889 20.3962 7.0077C20.3962 6.84652 20.3571 6.70044 20.2788 6.56948C20.2104 6.42844 20.1126 6.31763 19.9855 6.23704C19.8584 6.15645 19.7069 6.11615 19.5309 6.11615H17.0229V7.92948Z" fill="#373F41"/>
</g>
</svg>
