<svg width="32" height="32" viewBox="0 0 32 32" fill="none" xmlns="http://www.w3.org/2000/svg">
<rect width="32" height="32" rx="16" fill="black" fill-opacity="0.2"/>
<g clip-path="url(#clip0_44_33718)">
<g clip-path="url(#clip1_44_33718)">
<path d="M12.6837 12.6027C12.5379 12.2306 12.5437 11.8053 12.6085 11.4162C13.0542 11.5498 13.4729 11.7611 13.8451 12.0404C14.0085 12.1652 14.2226 12.2055 14.4221 12.1454C14.934 11.9922 15.4656 11.9152 16 11.9167C16.5606 11.9167 17.0931 11.9984 17.5767 12.1448C17.7762 12.2055 17.9903 12.1647 18.1531 12.0398C18.5251 11.7606 18.9436 11.5493 19.3891 11.4157C19.4539 11.8047 19.4591 12.23 19.3145 12.6016C19.227 12.8256 19.2707 13.0834 19.4358 13.2666C19.8581 13.735 20.0833 14.2734 20.0833 14.8334C20.0833 16.0666 18.9341 17.2758 17.0885 17.6439C16.6265 17.7361 16.4462 18.3177 16.7997 18.6507C17.0266 18.8642 17.1666 19.1652 17.1666 19.5001V21.2501C17.1666 21.4048 17.2281 21.5532 17.3375 21.6625C17.4469 21.7719 17.5953 21.8334 17.75 21.8334C17.9047 21.8334 18.0531 21.7719 18.1625 21.6625C18.2718 21.5532 18.3333 21.4048 18.3333 21.2501V19.5001C18.3333 19.1676 18.2633 18.8514 18.1385 18.565C19.8984 17.9542 21.25 16.5793 21.25 14.8334C21.25 14.0477 20.9676 13.3255 20.4992 12.7206C20.6217 12.2422 20.6106 11.7604 20.564 11.3906C20.5226 11.0592 20.4648 10.6252 20.2315 10.3662C19.8844 9.98182 19.3098 10.2082 18.9015 10.3476C18.4634 10.4958 18.0467 10.7007 17.6619 10.9572C17.1188 10.8186 16.5604 10.749 16 10.7501C15.4201 10.7501 14.8607 10.823 14.3369 10.9577C13.9521 10.7013 13.5353 10.4964 13.0973 10.3482C12.689 10.2082 12.1138 9.98182 11.7667 10.3662C11.5287 10.6299 11.4791 11.0295 11.4366 11.369L11.4336 11.3912C11.387 11.7616 11.3765 12.244 11.499 12.7229C11.0323 13.3272 10.75 14.0482 10.75 14.8334C10.75 16.5787 12.1016 17.9542 13.8615 18.565C13.7341 18.8562 13.6678 19.1705 13.6666 19.4884L13.5686 19.5082C13.1504 19.566 12.8826 19.5141 12.7006 19.4371C12.2573 19.2492 12.0286 18.7762 11.7498 18.4145C11.576 18.1899 11.3228 17.9093 10.9343 17.7798C10.8616 17.7556 10.7849 17.746 10.7084 17.7514C10.632 17.7569 10.5574 17.7773 10.4889 17.8116C10.3505 17.8809 10.2453 18.0023 10.1964 18.1491C10.1475 18.2959 10.1589 18.4561 10.2282 18.5945C10.2974 18.7329 10.4188 18.8381 10.5656 18.887C10.8911 18.9955 11.1163 19.5532 11.3228 19.8005C11.5404 20.0618 11.8297 20.3348 12.2445 20.511C12.6423 20.6802 13.1096 20.7402 13.6666 20.672V21.2501C13.6666 21.4048 13.7281 21.5532 13.8375 21.6625C13.9469 21.7719 14.0953 21.8334 14.25 21.8334C14.4047 21.8334 14.5531 21.7719 14.6625 21.6625C14.7718 21.5532 14.8333 21.4048 14.8333 21.2501V19.5001C14.8333 19.1652 14.9733 18.8642 15.2002 18.6507C15.5543 18.3171 15.3735 17.7361 14.9115 17.6439C13.0652 17.2758 11.9166 16.0666 11.9166 14.8334C11.9166 14.2746 12.1412 13.7362 12.563 13.2677C12.7281 13.0846 12.7712 12.8267 12.6837 12.6027Z" fill="white"/>
</g>
</g>
<defs>
<clipPath id="clip0_44_33718">
<rect width="14" height="14" fill="white" transform="translate(9 9)"/>
</clipPath>
<clipPath id="clip1_44_33718">
<rect width="14" height="14" fill="white" transform="translate(9 9)"/>
</clipPath>
</defs>
</svg>
