<svg width="129" height="26" viewBox="0 0 129 26" fill="none" xmlns="http://www.w3.org/2000/svg">
<path d="M0 0.5H7.87038C12.7435 0.5 16.6939 4.45043 16.6939 9.32353V9.32353C16.6939 14.1966 12.7435 18.1471 7.87038 18.1471H0V0.5Z" fill="#4730D9"/>
<path opacity="0.8" d="M0 8.83333H8.36057C12.9629 8.83333 16.6939 12.5643 16.6939 17.1667V17.1667C16.6939 21.769 12.9561 25.5 8.35377 25.5V25.5C3.74387 25.5 0 21.7629 0 17.153L0 8.83333Z" fill="#7967EC"/>
<path d="M121.989 20.8704V12.8704C121.989 11.8037 122.293 10.9667 122.901 10.3593C123.524 9.73703 124.385 9.42592 125.483 9.42592H129V12.4481H126.663C126.425 12.4481 126.232 12.5222 126.084 12.6704C125.936 12.8185 125.862 13.0111 125.862 13.2481V20.8704H121.989Z" fill="#4730D9"/>
<path d="M113.791 21.137C112.633 21.137 111.579 20.8852 110.63 20.3815C109.695 19.863 108.946 19.1518 108.382 18.2481C107.818 17.3444 107.536 16.3074 107.536 15.137C107.536 13.9815 107.818 12.9518 108.382 12.0481C108.946 11.1444 109.702 10.4407 110.652 9.93703C111.602 9.41851 112.655 9.15926 113.813 9.15926C114.97 9.15926 116.016 9.41851 116.951 9.93703C117.901 10.4407 118.65 11.1444 119.199 12.0481C119.763 12.9518 120.045 13.9815 120.045 15.137C120.045 16.3074 119.763 17.3444 119.199 18.2481C118.65 19.1518 117.901 19.863 116.951 20.3815C116.016 20.8852 114.963 21.137 113.791 21.137ZM113.791 17.7148C114.265 17.7148 114.681 17.6037 115.037 17.3815C115.408 17.1593 115.69 16.8556 115.883 16.4704C116.076 16.0704 116.172 15.6259 116.172 15.137C116.172 14.6333 116.076 14.1889 115.883 13.8037C115.69 13.4185 115.408 13.1148 115.037 12.8926C114.681 12.6704 114.265 12.5593 113.791 12.5593C113.316 12.5593 112.9 12.6704 112.544 12.8926C112.188 13.1148 111.906 13.4185 111.698 13.8037C111.505 14.1889 111.409 14.6333 111.409 15.137C111.409 15.6259 111.505 16.0704 111.698 16.4704C111.906 16.8556 112.188 17.1593 112.544 17.3815C112.9 17.6037 113.316 17.7148 113.791 17.7148Z" fill="#4730D9"/>
<path d="M99.6578 21.1593C98.4113 21.1593 97.3133 20.9 96.3636 20.3815C95.4287 19.863 94.7016 19.1444 94.1822 18.2259C93.6629 17.2926 93.4032 16.1963 93.4032 14.937V4.64814H97.2762V10.4926H97.3652C97.6026 10.1963 97.8771 9.95185 98.1888 9.75925C98.5004 9.55185 98.8491 9.4037 99.2349 9.31481C99.6207 9.2111 100.021 9.15925 100.437 9.15925C101.49 9.15925 102.433 9.4037 103.264 9.89259C104.095 10.3815 104.74 11.063 105.2 11.937C105.675 12.7963 105.912 13.8037 105.912 14.9593C105.912 15.8778 105.764 16.7148 105.467 17.4704C105.185 18.2111 104.77 18.863 104.221 19.4259C103.687 19.9741 103.034 20.4037 102.262 20.7148C101.49 21.0111 100.622 21.1593 99.6578 21.1593ZM99.6578 17.8037C100.133 17.8037 100.541 17.6926 100.882 17.4704C101.238 17.2333 101.505 16.9148 101.683 16.5148C101.876 16.1148 101.973 15.663 101.973 15.1593C101.973 14.6704 101.876 14.2333 101.683 13.8481C101.505 13.463 101.238 13.1593 100.882 12.937C100.541 12.7 100.133 12.5815 99.6578 12.5815C99.2127 12.5815 98.812 12.7 98.4559 12.937C98.0997 13.1593 97.8252 13.463 97.6323 13.8481C97.4394 14.2333 97.3429 14.6704 97.3429 15.1593C97.3429 15.663 97.4394 16.1148 97.6323 16.5148C97.8252 16.9148 98.0997 17.2333 98.4559 17.4704C98.812 17.6926 99.2127 17.8037 99.6578 17.8037Z" fill="#4730D9"/>
<path d="M84.8707 20.8704V12.8704C84.8707 11.8037 85.1749 10.9667 85.7833 10.3593C86.4065 9.73703 87.2672 9.42592 88.3652 9.42592H91.8821V12.4481H89.5449C89.3075 12.4481 89.1146 12.5222 88.9662 12.6704C88.8178 12.8185 88.7436 13.0111 88.7436 13.2481V20.8704H84.8707Z" fill="#4730D9"/>
<path d="M75.1245 21.1593C74.1303 21.1593 73.2473 20.9074 72.4757 20.4037C71.7041 19.9 71.0957 19.2111 70.6505 18.337C70.2202 17.4481 70.005 16.4407 70.005 15.3148C70.005 14.1296 70.2647 13.0704 70.7841 12.137C71.3183 11.2037 72.0602 10.4778 73.0099 9.95926C73.9596 9.42592 75.08 9.15926 76.371 9.15926C77.6323 9.15926 78.7155 9.41851 79.6207 9.93703C80.5407 10.4556 81.253 11.1667 81.7575 12.0704C82.2621 12.9741 82.5143 14.0111 82.5143 15.1815V20.8704H78.7971V19.0926H78.7081C78.5004 19.4926 78.2333 19.8481 77.9068 20.1593C77.5803 20.4704 77.1871 20.7148 76.7271 20.8926C76.2819 21.0704 75.7477 21.1593 75.1245 21.1593ZM76.2819 17.8037C76.7568 17.8037 77.1648 17.6926 77.5061 17.4704C77.8474 17.2333 78.1145 16.9148 78.3075 16.5148C78.5004 16.1148 78.5968 15.663 78.5968 15.1593C78.5968 14.6556 78.5004 14.2185 78.3075 13.8481C78.1145 13.463 77.8474 13.1593 77.5061 12.937C77.1648 12.7 76.7568 12.5815 76.2819 12.5815C75.8219 12.5815 75.4138 12.7 75.0577 12.937C74.7164 13.1593 74.4493 13.463 74.2564 13.8481C74.0635 14.2185 73.967 14.6556 73.967 15.1593C73.967 15.663 74.0635 16.1148 74.2564 16.5148C74.4493 16.9148 74.7164 17.2333 75.0577 17.4704C75.4138 17.6926 75.8219 17.8037 76.2819 17.8037Z" fill="#4730D9"/>
<path d="M54.0712 20.8704V5.31481H58.3226V11.2704H63.7092V5.31481H67.9606V20.8704H63.7092V14.7148H58.3226V20.8704H54.0712Z" fill="#4730D9"/>
<path d="M48.4239 20.8704C47.3406 20.8704 46.4874 20.5667 45.8642 19.9593C45.2558 19.337 44.9516 18.4926 44.9516 17.4259V6.69259H48.8023V17.137C48.8023 17.3 48.8616 17.4407 48.9804 17.5593C49.0991 17.663 49.24 17.7148 49.4033 17.7148H51.8962V20.8704H48.4239ZM43.1486 12.4481V9.42593H51.8962V12.4481H43.1486Z" fill="#4730D9"/>
<path d="M37.6786 20.8704V9.42592H41.5516V20.8704H37.6786ZM39.6151 8.18148C39.0216 8.18148 38.5096 7.96666 38.0793 7.53703C37.6638 7.1074 37.4561 6.6037 37.4561 6.02592C37.4561 5.43333 37.6638 4.92963 38.0793 4.51481C38.5096 4.08518 39.0216 3.87037 39.6151 3.87037C40.2087 3.87037 40.7132 4.08518 41.1287 4.51481C41.559 4.92963 41.7742 5.43333 41.7742 6.02592C41.7742 6.6037 41.559 7.1074 41.1287 7.53703C40.7132 7.96666 40.2087 8.18148 39.6151 8.18148Z" fill="#4730D9"/>
<path d="M21.5833 20.8704V5.31481H30.8652C31.6813 5.31481 32.4158 5.49259 33.0688 5.84814C33.7365 6.18888 34.2707 6.67036 34.6714 7.29259C35.072 7.91481 35.2723 8.64814 35.2723 9.49259C35.2723 9.95185 35.1833 10.3963 35.0052 10.8259C34.8272 11.2407 34.5898 11.6185 34.293 11.9593C33.9962 12.2852 33.6401 12.5667 33.2246 12.8037C33.7143 13.0259 34.1372 13.3296 34.4933 13.7148C34.8643 14.1 35.1462 14.537 35.3391 15.0259C35.5469 15.5148 35.6507 16.0333 35.6507 16.5815C35.6507 17.4407 35.443 18.1963 35.0275 18.8481C34.6269 19.4852 34.0852 19.9815 33.4026 20.337C32.72 20.6926 31.9632 20.8704 31.1323 20.8704H21.5833ZM25.8347 17.5148H30.1084C30.3903 17.5148 30.6277 17.4556 30.8206 17.337C31.0284 17.2037 31.1916 17.0259 31.3103 16.8037C31.429 16.5815 31.4884 16.337 31.4884 16.0704C31.4884 15.8037 31.429 15.5667 31.3103 15.3593C31.1916 15.1518 31.0284 14.9889 30.8206 14.8704C30.6277 14.737 30.3903 14.6704 30.1084 14.6704H25.8347V17.5148ZM25.8347 11.4259H29.6409C29.8932 11.4259 30.1158 11.3667 30.3087 11.2481C30.5164 11.1148 30.6722 10.9444 30.7761 10.737C30.8948 10.5296 30.9542 10.3074 30.9542 10.0704C30.9542 9.83333 30.8948 9.61851 30.7761 9.42592C30.6722 9.21851 30.5239 9.05555 30.331 8.93703C30.138 8.81851 29.908 8.75925 29.6409 8.75925H25.8347V11.4259Z" fill="#4730D9"/>
</svg>
