<svg width="32" height="32" viewBox="0 0 32 32" fill="none" xmlns="http://www.w3.org/2000/svg">
<rect width="32" height="32" rx="16" fill="black" fill-opacity="0.2"/>
<g clip-path="url(#clip0_40_33643)">
<path fill-rule="evenodd" clip-rule="evenodd" d="M12.9492 10.7977C14.9769 10.573 17.0232 10.573 19.0509 10.7977C20.1586 10.9214 21.0517 11.7935 21.1818 12.9053C21.4223 14.9614 21.4223 17.0384 21.1818 19.0945C21.0517 20.2063 20.1586 21.0784 19.0515 21.2026C17.0236 21.4275 14.9771 21.4275 12.9492 21.2026C11.8415 21.0784 10.9484 20.2063 10.8183 19.0951C10.5778 17.0388 10.5778 14.9615 10.8183 12.9053C10.9484 11.7935 11.8415 10.9214 12.9492 10.7977ZM18.6688 13.2291C18.705 13.4303 18.6583 13.6257 18.4716 13.6438L18.1613 13.6998L18.033 18.5514C17.76 18.6972 17.5115 18.7777 17.3067 18.7701C16.976 18.7585 16.8961 18.6447 16.6592 18.3064L14.7307 14.8373L14.6432 18.125L15.2779 18.3023C15.2779 18.3023 15.2674 18.6996 14.7529 18.6815L13.3296 18.7211C13.2911 18.6307 13.3383 18.4108 13.4841 18.3735L13.8575 18.2749L13.9724 13.9291L13.4591 13.8672C13.4229 13.666 13.5343 13.3836 13.8219 13.3714L15.3485 13.3136L17.3581 16.8294L17.4391 13.7838L16.9048 13.6981C16.8952 13.647 16.8967 13.5946 16.9092 13.5442C16.9217 13.4938 16.9449 13.4467 16.9772 13.4061C17.0096 13.3655 17.0502 13.3323 17.0965 13.3088C17.1428 13.2853 17.1936 13.272 17.2455 13.2699L18.6688 13.2291Z" fill="white"/>
</g>
<defs>
<clipPath id="clip0_40_33643">
<rect width="14" height="14" fill="white" transform="translate(9 9)"/>
</clipPath>
</defs>
</svg>
