<svg width="38" height="38" viewBox="0 0 38 38" fill="none" xmlns="http://www.w3.org/2000/svg">
<rect width="38" height="38" rx="19" fill="#4730D9"/>
<g clip-path="url(#clip0_390_1192)">
<path fill-rule="evenodd" clip-rule="evenodd" d="M15.0775 12.3115C17.6845 12.0225 20.3155 12.0225 22.9225 12.3115C24.3467 12.4705 25.495 13.5917 25.6622 15.0212C25.9714 17.6647 25.9714 20.3352 25.6622 22.9787C25.495 24.4082 24.3467 25.5295 22.9232 25.6892C20.316 25.9783 17.6848 25.9783 15.0775 25.6892C13.6532 25.5295 12.505 24.4082 12.3377 22.9795C12.0285 20.3357 12.0285 17.6649 12.3377 15.0212C12.505 13.5917 13.6532 12.4705 15.0775 12.3115ZM22.4312 15.4375C22.4777 15.6962 22.4177 15.9475 22.1777 15.9707L21.7787 16.0427L21.6137 22.2805C21.2627 22.468 20.9432 22.5715 20.68 22.5617C20.2547 22.5467 20.152 22.4005 19.8475 21.9655L17.368 17.5052L17.2555 21.7322L18.0715 21.9602C18.0715 21.9602 18.058 22.471 17.3965 22.4477L15.5665 22.4987C15.517 22.3825 15.5777 22.0997 15.7652 22.0517L16.2452 21.925L16.393 16.3375L15.733 16.258C15.6865 15.9992 15.8297 15.6362 16.1995 15.6205L18.1622 15.5462L20.746 20.0665L20.8502 16.1507L20.1632 16.0405C20.1509 15.9749 20.1528 15.9074 20.1689 15.8426C20.185 15.7778 20.2148 15.7173 20.2564 15.6651C20.2979 15.6128 20.3502 15.5702 20.4097 15.5399C20.4692 15.5097 20.5346 15.4927 20.6012 15.49L22.4312 15.4375Z" fill="white"/>
</g>
<defs>
<clipPath id="clip0_390_1192">
<rect width="18" height="18" fill="white" transform="translate(10 10)"/>
</clipPath>
</defs>
</svg>
