<svg width="14" height="14" viewBox="0 0 14 14" fill="none" xmlns="http://www.w3.org/2000/svg">
<g id="person">
<path id="Vector" d="M7.00004 3.5C7.64171 3.5 8.16671 4.025 8.16671 4.66667C8.16671 5.30833 7.64171 5.83333 7.00004 5.83333C6.35837 5.83333 5.83337 5.30833 5.83337 4.66667C5.83337 4.025 6.35837 3.5 7.00004 3.5ZM7.00004 9.33333C8.57504 9.33333 10.3834 10.0858 10.5 10.5H3.50004C3.63421 10.08 5.43087 9.33333 7.00004 9.33333ZM7.00004 2.33333C5.71087 2.33333 4.66671 3.3775 4.66671 4.66667C4.66671 5.95583 5.71087 7 7.00004 7C8.28921 7 9.33337 5.95583 9.33337 4.66667C9.33337 3.3775 8.28921 2.33333 7.00004 2.33333ZM7.00004 8.16667C5.44254 8.16667 2.33337 8.94833 2.33337 10.5V11.6667H11.6667V10.5C11.6667 8.94833 8.55754 8.16667 7.00004 8.16667Z" fill="white"/>
</g>
</svg>
